<svg width="28" height="28" viewBox="0 0 28 28" fill="none" xmlns="http://www.w3.org/2000/svg">
<path d="M24.3833 2.33331H3.61666C3.2763 2.33331 2.94988 2.46852 2.70921 2.70919C2.46854 2.94986 2.33333 3.27629 2.33333 3.61665V24.3833C2.33333 24.5518 2.36652 24.7187 2.43102 24.8744C2.49551 25.0301 2.59004 25.1716 2.70921 25.2908C2.82838 25.4099 2.96985 25.5045 3.12555 25.569C3.28125 25.6335 3.44813 25.6666 3.61666 25.6666H14.7933V16.625H11.76V13.125H14.7933V10.5C14.7305 9.8837 14.8033 9.26113 15.0065 8.67594C15.2097 8.09075 15.5386 7.55712 15.9699 7.11246C16.4012 6.6678 16.9246 6.32289 17.5033 6.10192C18.082 5.88095 18.7021 5.78927 19.32 5.83331C20.228 5.82773 21.1357 5.87447 22.0383 5.97331V9.12331H20.1833C18.7133 9.12331 18.4333 9.82331 18.4333 10.8383V13.09H21.9333L21.4783 16.59H18.4333V25.6666H24.3833C24.5519 25.6666 24.7187 25.6335 24.8744 25.569C25.0301 25.5045 25.1716 25.4099 25.2908 25.2908C25.41 25.1716 25.5045 25.0301 25.569 24.8744C25.6335 24.7187 25.6667 24.5518 25.6667 24.3833V3.61665C25.6667 3.44812 25.6335 3.28124 25.569 3.12554C25.5045 2.96983 25.41 2.82836 25.2908 2.70919C25.1716 2.59002 25.0301 2.49549 24.8744 2.431C24.7187 2.36651 24.5519 2.33331 24.3833 2.33331V2.33331Z" fill="black"/>
</svg>
